<svg width="36" height="36" viewBox="0 0 36 36" fill="none" xmlns="http://www.w3.org/2000/svg">
<path d="M36 18C36 27.9411 27.9411 36 18 36C8.05887 36 0 27.9411 0 18C0 8.05887 8.05887 0 18 0C27.9411 0 36 8.05887 36 18Z" fill="white"/>
<path fill-rule="evenodd" clip-rule="evenodd" d="M18 35C27.3888 35 35 27.3888 35 18C35 8.61116 27.3888 1 18 1C8.61116 1 1 8.61116 1 18C1 27.3888 8.61116 35 18 35ZM18 36C27.9411 36 36 27.9411 36 18C36 8.05887 27.9411 0 18 0C8.05887 0 0 8.05887 0 18C0 27.9411 8.05887 36 18 36Z" fill="black"/>
<path fill-rule="evenodd" clip-rule="evenodd" d="M15.7814 21.699V14.3907C15.7814 13.1491 14.7749 12.1426 13.5333 12.1426C12.2917 12.1426 11.2852 13.1491 11.2852 14.3907V21.699C11.2852 22.9406 12.2917 23.9471 13.5333 23.9471C14.7749 23.9471 15.7814 22.9406 15.7814 21.699ZM13.5333 11.1426C11.7394 11.1426 10.2852 12.5968 10.2852 14.3907V21.699C10.2852 23.4929 11.7394 24.9471 13.5333 24.9471C15.3272 24.9471 16.7814 23.4929 16.7814 21.699V14.3907C16.7814 12.5968 15.3272 11.1426 13.5333 11.1426Z" fill="black"/>
<path d="M16.7814 21.6993C16.7814 23.4932 15.3272 24.9474 13.5333 24.9474C11.7394 24.9474 10.2852 23.4932 10.2852 21.6993C10.2852 19.9054 11.7394 18.4512 13.5333 18.4512C15.3272 18.4512 16.7814 19.9054 16.7814 21.6993Z" fill="black"/>
<path fill-rule="evenodd" clip-rule="evenodd" d="M24.715 21.699V14.3907C24.715 13.1491 23.7085 12.1426 22.4669 12.1426C21.2253 12.1426 20.2188 13.1491 20.2188 14.3907V21.699C20.2188 22.9406 21.2253 23.9471 22.4669 23.9471C23.7085 23.9471 24.715 22.9406 24.715 21.699ZM22.4669 11.1426C20.673 11.1426 19.2188 12.5968 19.2188 14.3907V21.699C19.2188 23.4929 20.673 24.9471 22.4669 24.9471C24.2608 24.9471 25.715 23.4929 25.715 21.699V14.3907C25.715 12.5968 24.2608 11.1426 22.4669 11.1426Z" fill="black"/>
<path d="M25.715 21.6991C25.715 23.493 24.2608 24.9472 22.4669 24.9472C20.673 24.9472 19.2188 23.493 19.2188 21.6991C19.2188 19.9052 20.673 18.451 22.4669 18.451C24.2608 18.451 25.715 19.9052 25.715 21.6991Z" fill="black"/>
</svg>
